<?xml version="1.0" encoding="UTF-8" standalone="no"?>
<!-- Generator: Adobe Illustrator 18.0.0, SVG Export Plug-In . SVG Version: 6.00 Build 0)  -->

<svg
   xmlns:dc="http://purl.org/dc/elements/1.1/"
   xmlns:cc="http://creativecommons.org/ns#"
   xmlns:rdf="http://www.w3.org/1999/02/22-rdf-syntax-ns#"
   xmlns:svg="http://www.w3.org/2000/svg"
   xmlns="http://www.w3.org/2000/svg"
   xmlns:sodipodi="http://sodipodi.sourceforge.net/DTD/sodipodi-0.dtd"
   xmlns:inkscape="http://www.inkscape.org/namespaces/inkscape"
   version="1.1"
   id="Capa_1"
   x="0px"
   y="0px"
   viewBox="0 0 56 56"
   style="enable-background:new 0 0 56 56;"
   xml:space="preserve"
   sodipodi:docname="xml.svg"
   inkscape:version="0.92.3 (2405546, 2018-03-11)"><metadata
   id="metadata63"><rdf:RDF><cc:Work
       rdf:about=""><dc:format>image/svg+xml</dc:format><dc:type
         rdf:resource="http://purl.org/dc/dcmitype/StillImage" /></cc:Work></rdf:RDF></metadata><defs
   id="defs61" /><sodipodi:namedview
   pagecolor="#ffffff"
   bordercolor="#666666"
   borderopacity="1"
   objecttolerance="10"
   gridtolerance="10"
   guidetolerance="10"
   inkscape:pageopacity="0"
   inkscape:pageshadow="2"
   inkscape:window-width="1920"
   inkscape:window-height="1001"
   id="namedview59"
   showgrid="false"
   inkscape:zoom="8.4285714"
   inkscape:cx="50.217578"
   inkscape:cy="39.658195"
   inkscape:window-x="-9"
   inkscape:window-y="-9"
   inkscape:window-maximized="1"
   inkscape:current-layer="Capa_1" />
<g
   id="g26">
	<path
   style="fill:#E9E9E0;"
   d="M36.985,0H7.963C7.155,0,6.5,0.655,6.5,1.926V55c0,0.345,0.655,1,1.463,1h40.074   c0.808,0,1.463-0.655,1.463-1V12.978c0-0.696-0.093-0.92-0.257-1.085L37.607,0.257C37.442,0.093,37.218,0,36.985,0z"
   id="path2" />
	<polygon
   style="fill:#D9D7CA;"
   points="37.5,0.151 37.5,12 49.349,12  "
   id="polygon4" />
	<path
   style="fill:#F29C1F;"
   d="M48.037,56H7.963C7.155,56,6.5,55.345,6.5,54.537V39h43v15.537C49.5,55.345,48.845,56,48.037,56z"
   id="path6" />
	
	
	
	
	
	
<g
   id="g939"
   transform="translate(4.1625075)"><path
     id="path956"
     d="m 23.442015,42.882984 3.195886,5.346167 a 0.04229469,0.04229469 0 0 1 0.0059,0.02166 v 4.708173 H 28.7291 v -4.708173 a 0.04229469,0.04229469 0 0 1 0.006,-0.02166 l 3.195885,-5.346167 h -2.341288 l -1.890357,3.136812 a 0.04229469,0.04229469 0 0 1 -0.0099,0.01182 0.04229469,0.04229469 0 0 1 -0.0512,0 0.04229469,0.04229469 0 0 1 -0.006,-0.006 0.04229469,0.04229469 0 0 1 -0.0039,-0.0059 l -1.860822,-3.136809 z"
     style="font-style:normal;font-variant:normal;font-weight:bold;font-stretch:normal;font-size:medium;line-height:1.25;font-family:'Tw Cen MT';-inkscape-font-specification:'Tw Cen MT Bold';letter-spacing:0px;word-spacing:0px;fill:#ffffff;fill-opacity:1;stroke:none;stroke-width:0.39612854"
     inkscape:connector-curvature="0" /><path
     inkscape:connector-curvature="0"
     style="fill:#ffffff"
     d="M 17.385,53 H 15.744 V 42.924 h 2.898 c 0.428,0 0.852,0.068 1.271,0.205 0.419,0.137 0.795,0.342 1.128,0.615 0.333,0.273 0.602,0.604 0.807,0.991 0.205,0.387 0.308,0.822 0.308,1.306 0,0.511 -0.087,0.973 -0.26,1.388 -0.173,0.415 -0.415,0.764 -0.725,1.046 -0.31,0.282 -0.684,0.501 -1.121,0.656 -0.437,0.155 -0.921,0.232 -1.449,0.232 H 17.384 V 53 Z m 0,-8.832 v 3.992 h 1.504 c 0.2,0 0.398,-0.034 0.595,-0.103 0.196,-0.068 0.376,-0.18 0.54,-0.335 0.164,-0.155 0.296,-0.371 0.396,-0.649 0.1,-0.278 0.15,-0.622 0.15,-1.032 0,-0.164 -0.023,-0.354 -0.068,-0.567 -0.046,-0.214 -0.139,-0.419 -0.28,-0.615 -0.142,-0.196 -0.34,-0.36 -0.595,-0.492 -0.255,-0.132 -0.593,-0.198 -1.012,-0.198 h -1.23 z"
     id="path6-5" /></g><g
   id="g943"
   transform="matrix(0.17298748,0,0,0.17298748,38.719492,22.066518)"><path
     style="color:#000000;display:inline;overflow:visible;visibility:visible;opacity:1;fill:#f29c1f;fill-opacity:1;fill-rule:nonzero;stroke:none;stroke-width:1;stroke-linecap:butt;stroke-linejoin:miter;stroke-miterlimit:4;stroke-dasharray:none;stroke-dashoffset:0;stroke-opacity:1;marker:none;marker-start:none;marker-mid:none;marker-end:none"
     d="m -65.255297,-52.422371 c -28.03173,0 -26.28125,12.15625 -26.28125,12.15625 l 0.0312,12.59375 h 26.75 v 3.78125 h -37.375003 c 0,0 -17.9375,-2.03428 -17.9375,26.2499998 0,28.2842702 15.65625,27.2812502 15.65625,27.2812502 h 9.343753 v -13.125 c 0,0 -0.50365,-15.65625019 15.40625,-15.65625019 15.9099,0 26.53125,0 26.53125,0 0,0 14.90625,0.24095999 14.90625,-14.40624981 0,-14.64721 0,-24.21875 0,-24.21875 0,0 2.26318,-14.65625 -27.03125,-14.65625 z m -14.75,8.46875 c 2.66143,0 4.8125,2.15107 4.8125,4.8125 0,2.66143 -2.15107,4.8125 -4.8125,4.8125 -2.66143,0 -4.8125,-2.15107 -4.8125,-4.8125 0,-2.66143 2.15107,-4.8125 4.8125,-4.8125 z"
     id="path8615"
     inkscape:connector-curvature="0" /><path
     id="path8620"
     d="m -64.459197,57.423729 c 28.03174,0 26.28125,-12.15625 26.28125,-12.15625 l -0.0312,-12.59375 h -26.75 v -3.78125 h 37.375 c 0,0 17.9375004,2.03427 17.9375004,-26.2500102 10e-6,-28.2842698 -15.6562504,-27.2812498 -15.6562504,-27.2812498 h -9.34375 v 13.125 c 0,0 0.50366,15.6562498 -15.40625,15.6562498 -15.9099,0 -26.53125,0 -26.53125,0 0,0 -14.90625,-0.24096 -14.90625,14.4062602 0,14.6472 0,24.21875 0,24.21875 0,0 -2.26318,14.65625 27.03125,14.65625 z m 14.75,-8.46875 c -2.66143,0 -4.8125,-2.15107 -4.8125,-4.8125 0,-2.66143 2.15107,-4.8125 4.8125,-4.8125 2.66143,0 4.8125,2.15107 4.8125,4.8125 1e-5,2.66143 -2.15107,4.8125 -4.8125,4.8125 z"
     style="color:#000000;display:inline;overflow:visible;visibility:visible;opacity:1;fill:#f29c1f;fill-opacity:1;fill-rule:nonzero;stroke:none;stroke-width:1;stroke-linecap:butt;stroke-linejoin:miter;stroke-miterlimit:4;stroke-dasharray:none;stroke-dashoffset:0;stroke-opacity:1;marker:none;marker-start:none;marker-mid:none;marker-end:none"
     inkscape:connector-curvature="0" /></g></g>
<g
   id="g28">
</g>
<g
   id="g30">
</g>
<g
   id="g32">
</g>
<g
   id="g34">
</g>
<g
   id="g36">
</g>
<g
   id="g38">
</g>
<g
   id="g40">
</g>
<g
   id="g42">
</g>
<g
   id="g44">
</g>
<g
   id="g46">
</g>
<g
   id="g48">
</g>
<g
   id="g50">
</g>
<g
   id="g52">
</g>
<g
   id="g54">
</g>
<g
   id="g56">
</g>
</svg>