<?xml version="1.0" encoding="UTF-8" standalone="no"?>
<!-- Generator: Adobe Illustrator 18.0.0, SVG Export Plug-In . SVG Version: 6.00 Build 0)  -->
<svg version="1.1" id="Capa_1" x="0px" y="0px" viewBox="0 0 56 56" style="enable-background:new 0 0 56 56;" xml:space="preserve">
    <g id="g42">
        <path style="fill:#E9E9E0;" d="M36.985,0H7.963C7.155,0,6.5,0.655,6.5,1.926V55c0,0.345,0.655,1,1.463,1h40.074   c0.808,0,1.463-0.655,1.463-1V12.978c0-0.696-0.093-0.92-0.257-1.085L37.607,0.257C37.442,0.093,37.218,0,36.985,0z" id="path2" />
        <polygon style="fill:#D9D7CA;" points="37.5,0.151 37.5,12 49.349,12  " id="polygon4" />
        <path style="fill:#90BAE1;" d="M48.037,56H7.963C7.155,56,6.5,55.345,6.5,54.537V39h43v15.537C49.5,55.345,48.845,56,48.037,56z" id="path6" />
        <g id="g40">
            <path style="fill:#C8BDB8;" d="M12.5,13h6c0.553,0,1-0.448,1-1s-0.447-1-1-1h-6c-0.553,0-1,0.448-1,1S11.947,13,12.5,13z" id="path16" />
            <path style="fill:#c8bdb8" d="m 15.264929,18 c 0.26,0 0.52,-0.11 0.71,-0.29 0.18,-0.19 0.29,-0.45 0.29,-0.71 0,-0.26 -0.11,-0.52 -0.29,-0.71 -0.38,-0.37 -1.04,-0.37 -1.42,0 -0.181,0.19 -0.29,0.44 -0.29,0.71 0,0.27 0.109,0.52 0.29,0.71 0.189,0.18 0.45,0.29 0.71,0.29 z" id="path20" inkscape:connector-curvature="0" />
            <path style="fill:#c8bdb8" d="m 19.264929,18 h 8 c 0.553,0 1,-0.448 1,-1 0,-0.552 -0.447,-1 -1,-1 h -8 c -0.553,0 -1,0.448 -1,1 0,0.552 0.447,1 1,1 z" id="path22" inkscape:connector-curvature="0" />
            <path inkscape:connector-curvature="0" style="fill:#c8bdb8" d="m 14.554929,31.29 c -0.181,0.19 -0.29,0.44 -0.29,0.71 0,0.27 0.109,0.52 0.29,0.71 0.189,0.18 0.439,0.29 0.71,0.29 0.27,0 0.52,-0.11 0.71,-0.29 0.18,-0.19 0.29,-0.45 0.29,-0.71 0,-0.26 -0.11,-0.52 -0.29,-0.71 -0.37,-0.37 -1.05,-0.37 -1.42,0 z" id="path24" />
            <path inkscape:connector-curvature="0" style="fill:#c8bdb8" d="m 27.264929,31 h -8 c -0.553,0 -1,0.448 -1,1 0,0.552 0.447,1 1,1 h 8 c 0.553,0 1,-0.448 1,-1 0,-0.552 -0.447,-1 -1,-1 z" id="path26" />
            <path style="fill:#c8bdb8" d="m 25.264929,21 h -6 c -0.553,0 -1,0.448 -1,1 0,0.552 0.447,1 1,1 h 6 c 0.553,0 1,-0.448 1,-1 0,-0.552 -0.447,-1 -1,-1 z" id="path32" inkscape:connector-curvature="0" />
            <path style="fill:#C8BDB8;" d="M12.5,28h4c0.553,0,1-0.448,1-1s-0.447-1-1-1h-4c-0.553,0-1,0.448-1,1S11.947,28,12.5,28z" id="path34" />
            <path inkscape:connector-curvature="0" id="path889" d="m 15.264929,23 c 0.26,0 0.52,-0.11 0.71,-0.29 0.18,-0.19 0.29,-0.45 0.29,-0.71 0,-0.26 -0.11,-0.52 -0.29,-0.71 -0.38,-0.37 -1.04,-0.37 -1.42,0 -0.181,0.19 -0.29,0.44 -0.29,0.71 0,0.27 0.109,0.52 0.29,0.71 0.189,0.18 0.45,0.29 0.71,0.29 z" style="fill:#c8bdb8" />
        </g>
        <path inkscape:connector-curvature="0" style="fill:#ffffff" d="m 31.998,42.924 h 1.668 V 53 h -1.668 v -6.932 l -2.256,5.605 h -1.449 l -2.27,-5.605 V 53 H 24.355 V 42.924 h 1.668 l 2.994,6.891 z" id="path10-2" />
        <path inkscape:connector-curvature="0" style="fill:#ffffff" d="m 37.863,42.924 v 8.832 h 4.635 V 53 H 36.195 V 42.924 Z" id="path12-2" />
        <path transform="matrix(1.0081908,0,0,1.0081908,-0.12038236,-0.43377644)" style="font-style:normal;font-variant:normal;font-weight:bold;font-stretch:normal;font-size:medium;line-height:1.25;font-family:'Tw Cen MT';-inkscape-font-specification:'Tw Cen MT Bold';letter-spacing:0px;word-spacing:0px;fill:#ffffff;fill-opacity:1;stroke:none;stroke-width:0.39291027" d="m 14.697266,42.964844 3.169922,5.302734 a 0.04195108,0.04195108 0 0 1 0.0059,0.02148 v 4.669922 h 2.068359 v -4.669922 a 0.04195108,0.04195108 0 0 1 0.0059,-0.02148 l 3.169922,-5.302734 h -2.322266 l -1.875,3.111328 a 0.04195108,0.04195108 0 0 1 -0.0098,0.01172 0.04195108,0.04195108 0 0 1 -0.05078,0 0.04195108,0.04195108 0 0 1 -0.0059,-0.0059 0.04195108,0.04195108 0 0 1 -0.0039,-0.0059 l -1.845703,-3.111328 z" id="path956" />
    </g>
</svg>